<svg width="400" height="158" viewBox="0 0 400 158" fill="none" xmlns="http://www.w3.org/2000/svg">
<g clip-path="url(#clip0_219_417)">
<path d="M182.884 60.7801L140.792 1.44715C140.056 0.408385 138.812 -0.133154 137.558 0.0391537L42.8963 12.9278C42.0767 13.041 41.3206 13.4496 40.7791 14.0798L0.839073 60.3616C-0.117106 61.4693 -0.273217 63.0693 0.453675 64.3444L32.1783 119.936C32.7881 121.004 33.9151 121.664 35.1396 121.664H95.2422C96.4863 121.664 97.6278 122.343 98.2279 123.441L116.02 155.855C116.62 156.952 117.766 157.632 119.005 157.632H156.467C158.906 157.632 160.56 155.121 159.614 152.852L151.276 132.8C150.559 131.082 151.33 129.098 153.013 128.33L181.513 115.288C182.733 114.732 183.518 113.501 183.518 112.147V62.7887C183.518 62.0699 183.294 61.3659 182.879 60.785L182.884 60.7801ZM128.099 66.1512L176.688 66.225V105.014L128.099 66.1463V66.1512ZM98.5206 109.745L74.5527 66.0724L113.249 66.1315L98.5255 109.745H98.5206ZM70.767 59.1752L52.6191 26.1118L106.16 59.2244L70.7621 59.1752H70.767ZM139.105 10.9093L173.454 59.3327L122.781 59.2539L139.105 10.9093ZM116.205 57.3536L53.3167 18.4613L133.002 7.61085L116.205 57.3586V57.3536ZM62.9566 59.1752H10.918L42.7256 22.3161L62.9566 59.1801V59.1752ZM62.6687 66.0675L35.2225 111.458L9.32272 66.0675H62.6687ZM68.6107 69.4743L93.4714 114.767H41.223L68.6107 69.4743ZM119.835 148.578L105.789 122.988L139.363 129.492L119.835 148.578ZM103.765 115.579L118.922 70.6903L139.797 122.56L103.77 115.579H103.765ZM151.335 150.74H127.445L144.432 134.139L151.335 150.74ZM147.466 123.303L127.962 74.8404L173.6 111.345L147.466 123.308V123.303Z" fill="white"/>
<path d="M240.435 7.15283C212.911 7.15283 207.335 15.1036 207.335 43.2341C207.335 71.3645 212.911 79.3153 240.435 79.3153C267.959 79.3153 273.711 71.3645 273.711 43.2341C273.711 15.1036 268.047 7.15283 240.435 7.15283ZM240.435 70.2027C220.082 70.2027 217.336 66.6285 217.336 43.2292C217.336 19.8298 220.077 16.2556 240.435 16.2556C260.793 16.2556 263.71 19.8298 263.71 43.2292C263.71 66.6285 260.969 70.2027 240.435 70.2027Z" fill="white"/>
<path d="M312.471 77.9763V17.511H337.165V8.49194H277.955V17.511H302.65V77.9763H312.471Z" fill="white"/>
<path d="M371.061 8.49194H357.518L328.667 77.9763H339.024L345.308 62.7049H383.184L389.467 77.9763H400L371.061 8.49194ZM348.932 53.7695L364.153 16.7972H364.329L379.549 53.7695H348.927H348.932Z" fill="white"/>
<path d="M246.358 104.901C241.084 104.615 239.42 104.221 238.464 103.222C237.791 102.508 237.581 101.469 237.581 99.7904C237.581 98.22 237.937 97.1123 238.606 96.3984C239.669 95.3252 241.684 94.9314 245.758 94.9314C249.831 94.9314 251.846 95.3597 252.944 96.4329C253.724 97.1812 253.968 98.2544 253.968 100.647V100.898H256.871V100.504C256.871 97.4323 256.446 95.6846 255.28 94.4686C253.724 92.8981 250.89 92.2188 245.723 92.2188C240.557 92.2188 237.972 92.9326 236.308 94.5769C235.142 95.7584 234.644 97.4717 234.644 99.8988C234.644 102.326 235.069 104.113 236.132 105.294C237.479 106.722 239.742 107.333 245.265 107.653C251.212 107.938 252.983 108.258 253.939 109.331C254.539 110.011 254.861 111.045 254.861 113.083C254.861 114.727 254.544 115.869 253.763 116.618C252.631 117.725 250.436 118.222 246.045 118.222C241.655 118.222 239.606 117.794 238.435 116.618C237.586 115.761 237.269 114.545 237.269 111.901V111.399H234.332V112.044C234.332 115.51 234.864 117.297 236.103 118.582C237.767 120.226 240.494 120.94 246.119 120.94C251.743 120.94 254.329 120.226 256.1 118.474C257.266 117.297 257.832 115.579 257.832 112.974C257.832 110.37 257.476 108.401 256.344 107.224C254.856 105.619 251.992 105.186 246.363 104.901H246.358Z" fill="white"/>
<path d="M282.205 107.756L272.043 92.6814H268.716L280.643 110.542V120.472H283.619V110.542L295.547 92.6814H292.327L282.205 107.756Z" fill="white"/>
<path d="M330.404 117.508H330.331L312.988 92.6814H308.636V120.472H311.466V95.65H311.539L328.882 120.472H333.233V92.6814H330.404V117.508Z" fill="white"/>
<path d="M370.071 110.72C370.071 116.47 368.724 118.223 361.08 118.223C352.762 118.223 351.347 116.509 351.347 106.579C351.347 96.6496 352.762 94.9364 361.08 94.9364C368.549 94.9364 369.963 96.9351 369.963 101.971V102.149H372.9V101.829C372.9 94.9708 370.354 92.1499 361.08 92.1499C350.532 92.1499 348.371 95.3302 348.371 106.579C348.371 117.829 350.532 121.009 361.08 121.009C370.744 121.009 373.007 118.257 373.007 110.867V110.547H370.071V110.725V110.72Z" fill="white"/>
</g>
<defs>
<clipPath id="clip0_219_417">
<rect width="400" height="157.627" fill="white" transform="translate(0 0.00463867)"/>
</clipPath>
</defs>
</svg>
